<svg width="24" height="22" viewBox="0 0 24 22" fill="none" xmlns="http://www.w3.org/2000/svg">
<path d="M6.6875 11H7M7 11H7.3125M7 11V10.6875M7 11V11.3125M7 11L6.69815 11.0809M7 11L7.30185 10.9191M7 11L6.91912 10.6981M7 11L7.08088 11.3019M7 11L6.72941 11.1563M7 11L7.27067 10.8438M7 11L6.84379 10.7294M7 11L7.15629 11.2707M7 11L6.77928 11.2211M7 11L7.22122 10.7791M7 11L6.77928 10.7791M7 11L7.22122 11.2211M7 11L6.8438 11.2708M7 11L7.1563 10.7295M7 11L6.72941 10.8439M7 11L7.27068 11.1564M7 11L6.91937 11.3021M7 11L7.08113 10.6984M7 11L6.6984 10.9193M7 11L7.3021 11.0811M7 11L6.69003 11.0407M7 11L7.30968 10.9591M7 11L6.95907 10.6901M7 11L7.04065 11.3098M7 11L6.71114 11.1195M7 11L7.28857 10.8803M7 11L6.88027 10.7112M7 11L7.11944 11.2886M7 11L6.75198 11.1902M7 11L7.24782 10.8097M7 11L6.80966 10.752M7 11L7.19014 11.2479M7 11L6.80988 11.2479M7 11L7.19035 10.7521M7 11L6.75219 10.8098M7 11L7.24804 11.1902M7 11L6.88033 11.2888M7 11L7.11951 10.7114M7 11L6.71121 10.8805M7 11L7.28863 11.1197M7 11L6.95934 11.3099M7 11L7.04092 10.6903M7 11L6.6903 10.9593M7 11L7.30995 11.0409M11.6875 11H12M12 11H12.3125M12 11V10.6875M12 11V11.3125M12 11L11.6981 11.0809M12 11L12.3019 10.9191M12 11L11.9191 10.6981M12 11L12.0809 11.3019M12 11L11.7294 11.1563M12 11L12.2707 10.8438M12 11L11.8438 10.7294M12 11L12.1563 11.2707M12 11L11.7793 11.2211M12 11L12.2212 10.7791M12 11L11.7793 10.7791M12 11L12.2212 11.2211M12 11L11.8438 11.2708M12 11L12.1563 10.7295M12 11L11.7294 10.8439M12 11L12.2707 11.1564M12 11L11.9194 11.3021M12 11L12.0811 10.6984M12 11L11.6984 10.9193M12 11L12.3021 11.0811M12 11L11.69 11.0407M12 11L12.3097 10.9591M12 11L11.9591 10.6901M12 11L12.0406 11.3098M12 11L11.7111 11.1195M12 11L12.2886 10.8803M12 11L11.8803 10.7112M12 11L12.1194 11.2886M12 11L11.752 11.1902M12 11L12.2478 10.8097M12 11L11.8097 10.752M12 11L12.1901 11.2479M12 11L11.8099 11.2479M12 11L12.1904 10.7521M12 11L11.7522 10.8098M12 11L12.248 11.1902M12 11L11.8803 11.2888M12 11L12.1195 10.7114M12 11L11.7112 10.8805M12 11L12.2886 11.1197M12 11L11.9593 11.3099M12 11L12.0409 10.6903M12 11L11.6903 10.9593M12 11L12.31 11.0409M16.6875 11H17M17 11H17.3125M17 11V10.6875M17 11V11.3125M17 11L16.6981 11.0809M17 11L17.3019 10.9191M17 11L16.9191 10.6981M17 11L17.0809 11.3019M17 11L16.7294 11.1563M17 11L17.2707 10.8438M17 11L16.8438 10.7294M17 11L17.1563 11.2707M17 11L16.7793 11.2211M17 11L17.2212 10.7791M17 11L16.7793 10.7791M17 11L17.2212 11.2211M17 11L16.8438 11.2708M17 11L17.1563 10.7295M17 11L16.7294 10.8439M17 11L17.2707 11.1564M17 11L16.9194 11.3021M17 11L17.0811 10.6984M17 11L16.6984 10.9193M17 11L17.3021 11.0811M17 11L16.69 11.0407M17 11L17.3097 10.9591M17 11L16.9591 10.6901M17 11L17.0406 11.3098M17 11L16.7111 11.1195M17 11L17.2886 10.8803M17 11L16.8803 10.7112M17 11L17.1194 11.2886M17 11L16.752 11.1902M17 11L17.2478 10.8097M17 11L16.8097 10.752M17 11L17.1901 11.2479M17 11L16.8099 11.2479M17 11L17.1904 10.7521M17 11L16.7522 10.8098M17 11L17.248 11.1902M17 11L16.8803 11.2888M17 11L17.1195 10.7114M17 11L16.7112 10.8805M17 11L17.2886 11.1197M17 11L16.9593 11.3099M17 11L17.0409 10.6903M17 11L16.6903 10.9593M17 11L17.31 11.0409M12 1C5.75 1 0.75 5.5 0.75 11C0.75 12.625 1.25 14.125 2 15.5C2.25 15.875 2.25 16.25 2.125 16.625L0.875 19.75C0.625 20.5 1.25 21.25 2 20.875L5.375 19.5C5.75 19.375 6.125 19.375 6.375 19.5C8 20.5 10 21 12 21C18.25 21 23.25 16.5 23.25 11C23.25 5.5 18.25 1 12 1Z" stroke="white" stroke-width="1.5" stroke-linecap="round" stroke-linejoin="round"/>
</svg>
