<svg width="33" height="24" viewBox="0 0 33 24" fill="none" xmlns="http://www.w3.org/2000/svg">
<path opacity="0.3" d="M12 4C7 4 3 7.6 3 12C3 13.3 3.4 14.5 4 15.6C4.2 15.9 4.2 16.2 4.1 16.5L3.1 19C2.9 19.6 3.4 20.2 4 19.9L6.7 18.8C7 18.7 7.3 18.7 7.5 18.8C8.8 19.6 10.4 20 12 20C17 20 21 16.4 21 12C21 7.6 17 4 12 4Z" fill="white"/>
<path d="M7.75 12H8M8 12H8.25M8 12V11.75M8 12V12.25M8 12L7.75852 12.0647M8 12L8.24148 11.9353M8 12L7.93529 11.7585M8 12L8.0647 12.2415M8 12L7.78353 12.125M8 12L8.21654 11.875M8 12L7.87503 11.7835M8 12L8.12503 12.2165M8 12L7.82342 12.1769M8 12L8.17697 11.8233M8 12L7.82342 11.8233M8 12L8.17697 12.1769M8 12L7.87504 12.2166M8 12L8.12504 11.7836M8 12L7.78353 11.8751M8 12L8.21654 12.1251M8 12L7.93549 12.2416M8 12L8.0649 11.7587M8 12L7.75872 11.9355M8 12L8.24168 12.0649M8 12L7.75202 12.0326M8 12L8.24775 11.9673M8 12L7.96725 11.7521M8 12L8.03252 12.2478M8 12L7.76891 12.0956M8 12L8.23085 11.9043M8 12L7.90421 11.769M8 12L8.09555 12.2309M8 12L7.80158 12.1521M8 12L8.19826 11.8478M8 12L7.84773 11.8016M8 12L8.15211 12.1983M8 12L7.8479 12.1983M8 12L8.15228 11.8017M8 12L7.80175 11.8478M8 12L8.19843 12.1522M8 12L7.90427 12.231M8 12L8.09561 11.7691M8 12L7.76897 11.9044M8 12L8.23091 12.0957M8 12L7.96747 12.2479M8 12L8.03273 11.7522M8 12L7.75224 11.9675M8 12L8.24796 12.0327M11.75 12H12M12 12H12.25M12 12V11.75M12 12V12.25M12 12L11.7585 12.0647M12 12L12.2415 11.9353M12 12L11.9353 11.7585M12 12L12.0647 12.2415M12 12L11.7835 12.125M12 12L12.2165 11.875M12 12L11.875 11.7835M12 12L12.125 12.2165M12 12L11.8234 12.1769M12 12L12.177 11.8233M12 12L11.8234 11.8233M12 12L12.177 12.1769M12 12L11.875 12.2166M12 12L12.125 11.7836M12 12L11.7835 11.8751M12 12L12.2165 12.1251M12 12L11.9355 12.2416M12 12L12.0649 11.7587M12 12L11.7587 11.9355M12 12L12.2417 12.0649M12 12L11.752 12.0326M12 12L12.2477 11.9673M12 12L11.9673 11.7521M12 12L12.0325 12.2478M12 12L11.7689 12.0956M12 12L12.2309 11.9043M12 12L11.9042 11.769M12 12L12.0956 12.2309M12 12L11.8016 12.1521M12 12L12.1983 11.8478M12 12L11.8477 11.8016M12 12L12.1521 12.1983M12 12L11.8479 12.1983M12 12L12.1523 11.8017M12 12L11.8018 11.8478M12 12L12.1984 12.1522M12 12L11.9043 12.231M12 12L12.0956 11.7691M12 12L11.769 11.9044M12 12L12.2309 12.0957M12 12L11.9675 12.2479M12 12L12.0327 11.7522M12 12L11.7522 11.9675M12 12L12.248 12.0327M15.75 12H16M16 12H16.25M16 12V11.75M16 12V12.25M16 12L15.7585 12.0647M16 12L16.2415 11.9353M16 12L15.9353 11.7585M16 12L16.0647 12.2415M16 12L15.7835 12.125M16 12L16.2165 11.875M16 12L15.875 11.7835M16 12L16.125 12.2165M16 12L15.8234 12.1769M16 12L16.177 11.8233M16 12L15.8234 11.8233M16 12L16.177 12.1769M16 12L15.875 12.2166M16 12L16.125 11.7836M16 12L15.7835 11.8751M16 12L16.2165 12.1251M16 12L15.9355 12.2416M16 12L16.0649 11.7587M16 12L15.7587 11.9355M16 12L16.2417 12.0649M16 12L15.752 12.0326M16 12L16.2477 11.9673M16 12L15.9673 11.7521M16 12L16.0325 12.2478M16 12L15.7689 12.0956M16 12L16.2309 11.9043M16 12L15.9042 11.769M16 12L16.0956 12.2309M16 12L15.8016 12.1521M16 12L16.1983 11.8478M16 12L15.8477 11.8016M16 12L16.1521 12.1983M16 12L15.8479 12.1983M16 12L16.1523 11.8017M16 12L15.8018 11.8478M16 12L16.1984 12.1522M16 12L15.9043 12.231M16 12L16.0956 11.7691M16 12L15.769 11.9044M16 12L16.2309 12.0957M16 12L15.9675 12.2479M16 12L16.0327 11.7522M16 12L15.7522 11.9675M16 12L16.248 12.0327M12 4C7 4 3 7.6 3 12C3 13.3 3.4 14.5 4 15.6C4.2 15.9 4.2 16.2 4.1 16.5L3.1 19C2.9 19.6 3.4 20.2 4 19.9L6.7 18.8C7 18.7 7.3 18.7 7.5 18.8C8.8 19.6 10.4 20 12 20C17 20 21 16.4 21 12C21 7.6 17 4 12 4Z" stroke="white" stroke-width="1.5" stroke-linecap="round" stroke-linejoin="round"/>
</svg>
