<svg width="48" height="48" viewBox="0 0 48 48" fill="none" xmlns="http://www.w3.org/2000/svg">
<rect width="48" height="48" rx="24" fill="#53BA65"/>
<path opacity="0.3" d="M31.5999 16.1C30.0999 15 27.8999 15 23.9999 15C20.0999 15 17.8999 15 16.3999 16.1C14.8999 17.2 14.9999 18.9 14.9999 22C14.9999 25.1 14.9999 26.8 16.3999 27.9C16.9999 28.3 17.6999 28.6 18.4999 28.8C18.7999 28.8 18.9999 29 18.9999 29.2V32C18.9999 32.9 20.0999 33.3 20.6999 32.7L23.7999 29.6C24.1999 29.2 24.6999 29 25.1999 29C28.3999 29 30.2999 28.9 31.4999 27.9C32.9999 26.8 32.9999 25.1 32.9999 22C32.9999 18.9 32.9999 17.2 31.5999 16.1Z" fill="white"/>
<path d="M23.75 22H24M24 22H24.25M24 22V21.75M24 22V22.25M24 22L23.7585 22.0647M24 22L24.2415 21.9353M24 22L23.9353 21.7585M24 22L24.0647 22.2415M24 22L23.7835 22.125M24 22L24.2165 21.875M24 22L23.875 21.7835M24 22L24.125 22.2165M24 22L23.8234 22.1769M24 22L24.177 21.8233M24 22L23.8234 21.8233M24 22L24.177 22.1769M24 22L23.875 22.2166M24 22L24.125 21.7836M24 22L23.7835 21.8751M24 22L24.2165 22.1251M24 22L23.9355 22.2416M24 22L24.0649 21.7587M24 22L23.7587 21.9355M24 22L24.2417 22.0649M24 22L23.752 22.0326M24 22L24.2477 21.9673M24 22L23.9673 21.7521M24 22L24.0325 22.2478M24 22L23.7689 22.0956M24 22L24.2309 21.9043M24 22L23.9042 21.769M24 22L24.0956 22.2309M24 22L23.8016 22.1521M24 22L24.1983 21.8478M24 22L23.8477 21.8016M24 22L24.1521 22.1983M24 22L23.8479 22.1983M24 22L24.1523 21.8017M24 22L23.8018 21.8478M24 22L24.1984 22.1522M24 22L23.9043 22.231M24 22L24.0956 21.7691M24 22L23.769 21.9044M24 22L24.2309 22.0957M24 22L23.9675 22.2479M24 22L24.0327 21.7522M24 22L23.7522 21.9675M24 22L24.248 22.0327M19.75 22H20M20 22H20.25M20 22V21.75M20 22V22.25M20 22L19.7585 22.0647M20 22L20.2415 21.9353M20 22L19.9353 21.7585M20 22L20.0647 22.2415M20 22L19.7835 22.125M20 22L20.2165 21.875M20 22L19.875 21.7835M20 22L20.125 22.2165M20 22L19.8234 22.1769M20 22L20.177 21.8233M20 22L19.8234 21.8233M20 22L20.177 22.1769M20 22L19.875 22.2166M20 22L20.125 21.7836M20 22L19.7835 21.8751M20 22L20.2165 22.1251M20 22L19.9355 22.2416M20 22L20.0649 21.7587M20 22L19.7587 21.9355M20 22L20.2417 22.0649M20 22L19.752 22.0326M20 22L20.2477 21.9673M20 22L19.9673 21.7521M20 22L20.0325 22.2478M20 22L19.7689 22.0956M20 22L20.2309 21.9043M20 22L19.9042 21.769M20 22L20.0956 22.2309M20 22L19.8016 22.1521M20 22L20.1983 21.8478M20 22L19.8477 21.8016M20 22L20.1521 22.1983M20 22L19.8479 22.1983M20 22L20.1523 21.8017M20 22L19.8018 21.8478M20 22L20.1984 22.1522M20 22L19.9043 22.231M20 22L20.0956 21.7691M20 22L19.769 21.9044M20 22L20.2309 22.0957M20 22L19.9675 22.2479M20 22L20.0327 21.7522M20 22L19.7522 21.9675M20 22L20.248 22.0327M27.75 22H28M28 22H28.25M28 22V21.75M28 22V22.25M28 22L27.7585 22.0647M28 22L28.2415 21.9353M28 22L27.9353 21.7585M28 22L28.0647 22.2415M28 22L27.7835 22.125M28 22L28.2165 21.875M28 22L27.875 21.7835M28 22L28.125 22.2165M28 22L27.8234 22.1769M28 22L28.177 21.8233M28 22L27.8234 21.8233M28 22L28.177 22.1769M28 22L27.875 22.2166M28 22L28.125 21.7836M28 22L27.7835 21.8751M28 22L28.2165 22.1251M28 22L27.9355 22.2416M28 22L28.0649 21.7587M28 22L27.7587 21.9355M28 22L28.2417 22.0649M28 22L27.752 22.0326M28 22L28.2477 21.9673M28 22L27.9673 21.7521M28 22L28.0325 22.2478M28 22L27.7689 22.0956M28 22L28.2309 21.9043M28 22L27.9042 21.769M28 22L28.0956 22.2309M28 22L27.8016 22.1521M28 22L28.1983 21.8478M28 22L27.8477 21.8016M28 22L28.1521 22.1983M28 22L27.8479 22.1983M28 22L28.1523 21.8017M28 22L27.8018 21.8478M28 22L28.1984 22.1522M28 22L27.9043 22.231M28 22L28.0956 21.7691M28 22L27.769 21.9044M28 22L28.2309 22.0957M28 22L27.9675 22.2479M28 22L28.0327 21.7522M28 22L27.7522 21.9675M28 22L28.248 22.0327M31.5999 16.1C30.0999 15 27.8999 15 23.9999 15C20.0999 15 17.8999 15 16.3999 16.1C14.8999 17.2 14.9999 18.9 14.9999 22C14.9999 25.1 14.9999 26.8 16.3999 27.9C16.9999 28.3 17.6999 28.6 18.4999 28.8C18.7999 28.8 18.9999 29 18.9999 29.2V32C18.9999 32.9 20.0999 33.3 20.6999 32.7L23.7999 29.6C24.1999 29.2 24.6999 29 25.1999 29C28.3999 29 30.2999 28.9 31.4999 27.9C32.9999 26.8 32.9999 25.1 32.9999 22C32.9999 18.9 32.9999 17.2 31.5999 16.1Z" stroke="white" stroke-width="1.5" stroke-linecap="round" stroke-linejoin="round"/>
</svg>
